# xmcd
#
# Track frame offsets: 
#        150
#        10952
#        28625
#        44250
#        60492
#        72592
#        85615
#        105272
#        123100
#        137152
#        158957
#
# Disc length: 2387 seconds
#
# Revision: 1
# Processed by: cddbd v1.5.2PL0 Copyright (c) Steve Scherf et al.
# Submitted via: ExactAudioCopy v0.99pb4
#
DISCID=8609510b
DTITLE=Garth Brooks - Ropin' the Wind
DYEAR=1991
DGENRE=Country
TTITLE0=Against the grain
TTITLE1=Rodeo
TTITLE2=What she's doing now
TTITLE3=Burning bridges
TTITLE4=Which one of them
TTITLE5=Papa loved mama
TTITLE6=Shameless
TTITLE7=Cold Shoulder
TTITLE8=We bury the hatchet
TTITLE9=In lonesome dove
TTITLE10=The river
EXTD=YEAR: 1991
EXTT0=
EXTT1=
EXTT2=
EXTT3=
EXTT4=
EXTT5=
EXTT6=
EXTT7=
EXTT8=
EXTT9=
EXTT10=
PLAYORDER=
